<svg id="katman_1" data-name="katman 1" xmlns="http://www.w3.org/2000/svg" viewBox="0 0 200 46.85"><defs><style>.cls-1{fill:#fff;}.cls-1,.cls-2{fill-rule:evenodd;}.cls-2{fill:#007678;}</style></defs><title>Katman-200px</title><path class="cls-1" d="M1,.1H8.45a1,1,0,0,1,1,.93h0a1,1,0,0,1-1,.93H1A1,1,0,0,1,0,1H0A1,1,0,0,1,1,.1Z" transform="translate(0 -0.08)"/><path class="cls-1" d="M1,2.71H8.45a1,1,0,0,1,1,.93h0a1,1,0,0,1-1,.93H1a1,1,0,0,1-1-.93H0a1,1,0,0,1,1-.93Z" transform="translate(0 -0.08)"/><path class="cls-1" d="M1,5.32H8.45a1,1,0,0,1,1,.93h0a1,1,0,0,1-1,.93H1a1,1,0,0,1-1-.93H0a1,1,0,0,1,1-.93Z" transform="translate(0 -0.08)"/><path class="cls-1" d="M1,7.93H8.45a1,1,0,0,1,1,.93h0a1,1,0,0,1-1,.93H1A.93.93,0,1,1,1,7.93Z" transform="translate(0 -0.08)"/><path class="cls-1" d="M1,10.54H8.45a1,1,0,0,1,1,.93h0a1,1,0,0,1-1,.93H1a.93.93,0,1,1,0-1.86Z" transform="translate(0 -0.08)"/><path class="cls-1" d="M1,13.15H8.45a1,1,0,0,1,1,.93h0a1,1,0,0,1-1,.93H1a1,1,0,0,1-1-.93H0a1,1,0,0,1,1-.93Z" transform="translate(0 -0.08)"/><path class="cls-1" d="M1,15.76H8.45a1,1,0,0,1,1,.93h0a1,1,0,0,1-1,.93H1a1,1,0,0,1-1-.93H0a1,1,0,0,1,1-.93Z" transform="translate(0 -0.08)"/><path class="cls-1" d="M1,18.37H8.45a1,1,0,0,1,1,.93h0a1,1,0,0,1-1,.93H1a1,1,0,0,1-1-.93H0a1,1,0,0,1,1-.93Z" transform="translate(0 -0.08)"/><path class="cls-1" d="M1,21H8.45a1,1,0,0,1,1,.93h0a1,1,0,0,1-1,.93H1a1,1,0,0,1-1-.93H0A1,1,0,0,1,1,21Z" transform="translate(0 -0.08)"/><path class="cls-1" d="M1,23.59H8.45a1,1,0,0,1,1,.93h0a1,1,0,0,1-1,.93H1a1,1,0,0,1-1-.93H0a1,1,0,0,1,1-.93Z" transform="translate(0 -0.08)"/><path class="cls-1" d="M1,26.2H8.45a1,1,0,0,1,1,.93h0a1,1,0,0,1-1,.93H1a1,1,0,0,1-1-.93H0a1,1,0,0,1,1-.93Z" transform="translate(0 -0.08)"/><path class="cls-1" d="M1,28.81H8.45a1,1,0,0,1,1,.93h0a1,1,0,0,1-1,.93H1a1,1,0,0,1-1-.93H0a1,1,0,0,1,1-.93Z" transform="translate(0 -0.08)"/><path class="cls-1" d="M1,31.42H8.45a1,1,0,0,1,1,.93h0a1,1,0,0,1-1,.93H1a1,1,0,0,1-1-.93H0a1,1,0,0,1,1-.93Z" transform="translate(0 -0.08)"/><path class="cls-1" d="M1,34H8.45a1,1,0,0,1,1,.93h0a1,1,0,0,1-1,.93H1A1,1,0,0,1,0,35H0A1,1,0,0,1,1,34Z" transform="translate(0 -0.08)"/><path class="cls-1" d="M1,36.64H8.45a1,1,0,0,1,1,.93h0a1,1,0,0,1-1,.93H1a1,1,0,0,1-1-.93H0a1,1,0,0,1,1-.93Z" transform="translate(0 -0.08)"/><path class="cls-1" d="M1,39.25H8.45a1,1,0,0,1,1,.93h0a1,1,0,0,1-1,.93H1a1,1,0,0,1-1-.93H0a1,1,0,0,1,1-.93Z" transform="translate(0 -0.08)"/><path class="cls-1" d="M1,41.86H8.45a1,1,0,0,1,1,.93h0a1,1,0,0,1-1,.93H1a1,1,0,0,1-1-.93H0a1,1,0,0,1,1-.93Z" transform="translate(0 -0.08)"/><path class="cls-1" d="M1,44.47H8.45a1,1,0,0,1,1,.93h0a1,1,0,0,1-1,.93H1a1,1,0,0,1-1-.93H0a1,1,0,0,1,1-.93Z" transform="translate(0 -0.08)"/><path class="cls-1" d="M25.8,45.06h7.47a1,1,0,0,1,1,.94h0a1,1,0,0,1-1,.92H25.8a1,1,0,0,1-1-.92h0a1,1,0,0,1,1-.94Z" transform="translate(0 -0.08)"/><path class="cls-1" d="M24,42.33h7.46a1,1,0,0,1,1,.93h0a1,1,0,0,1-1,.93H24a1,1,0,0,1-1-.93h0a1,1,0,0,1,1-.93Z" transform="translate(0 -0.08)"/><path class="cls-1" d="M22.29,39.85h7.47a1,1,0,0,1,1,.93h0a1,1,0,0,1-1,.93H22.29a1,1,0,0,1-1-.93h0a1,1,0,0,1,1-.93Z" transform="translate(0 -0.08)"/><path class="cls-1" d="M20.62,37.36h7.47a1,1,0,0,1,1,.93h0a1,1,0,0,1-1,.93H20.62a1,1,0,0,1-1-.93h0a1,1,0,0,1,1-.93Z" transform="translate(0 -0.08)"/><path class="cls-1" d="M19,34.88h7.47a1,1,0,0,1,1,.93h0a1,1,0,0,1-1,.93H19a1,1,0,0,1-1-.93h0a1,1,0,0,1,1-.93Z" transform="translate(0 -0.08)"/><path class="cls-1" d="M17.29,32.4h7.46a1,1,0,0,1,1,.93h0a1,1,0,0,1-1,.92H17.29a1,1,0,0,1-1-.92h0a1,1,0,0,1,1-.93Z" transform="translate(0 -0.08)"/><path class="cls-1" d="M15.62,29.91h7.47a1,1,0,0,1,1,.93h0a1,1,0,0,1-1,.93H15.62a1,1,0,0,1-1-.93h0a1,1,0,0,1,1-.93Z" transform="translate(0 -0.08)"/><path class="cls-1" d="M14,27.43h7.47a1,1,0,0,1,1,.93h0a1,1,0,0,1-1,.93H14a1,1,0,0,1-1-.93h0a1,1,0,0,1,1-.93Z" transform="translate(0 -0.08)"/><path class="cls-1" d="M12.28,25h7.47a1,1,0,0,1,1,.92h0a1,1,0,0,1-1,.94H12.28a1,1,0,0,1-1-.94h0a1,1,0,0,1,1-.92Z" transform="translate(0 -0.08)"/><path class="cls-1" d="M10.61,22.46h7.47a1,1,0,0,1,1,.93h0a1,1,0,0,1-1,.93H10.61a1,1,0,0,1-1-.93h0a1,1,0,0,1,1-.93Z" transform="translate(0 -0.08)"/><path class="cls-1" d="M11.22,20h7.47a.93.93,0,1,1,0,1.85H11.22a1,1,0,0,1-1-.93h0a1,1,0,0,1,1-.92Z" transform="translate(0 -0.08)"/><path class="cls-1" d="M13.36,17.49h7.47a1,1,0,0,1,1,.93h0a1,1,0,0,1-1,.93H13.36a1,1,0,0,1-1-.93h0a1,1,0,0,1,1-.93Z" transform="translate(0 -0.08)"/><path class="cls-1" d="M14.69,15h7.46a1,1,0,0,1,1,.93h0a1,1,0,0,1-1,.93H14.69a1,1,0,0,1-1-.93h0a1,1,0,0,1,1-.93Z" transform="translate(0 -0.08)"/><path class="cls-1" d="M16.1,12.51h7.47a1,1,0,0,1,1,.93h0a1,1,0,0,1-1,.93H16.1a1,1,0,0,1-1-.93h0a1,1,0,0,1,1-.93Z" transform="translate(0 -0.08)"/><path class="cls-1" d="M18.08,10h7.46a1,1,0,0,1,1,.92h0a1,1,0,0,1-1,.94H18.08a1,1,0,0,1-1-.94h0a1,1,0,0,1,1-.92Z" transform="translate(0 -0.08)"/><path class="cls-1" d="M20.06,7.54h7.46a1,1,0,0,1,1,.93h0a1,1,0,0,1-1,.93H20.06a1,1,0,0,1-1-.93h0a1,1,0,0,1,1-.93Z" transform="translate(0 -0.08)"/><path class="cls-1" d="M21.51,5.05H29A1,1,0,0,1,30,6h0a1,1,0,0,1-1,.93H21.51a1,1,0,0,1-1-.93h0a1,1,0,0,1,1-.93Z" transform="translate(0 -0.08)"/><path class="cls-1" d="M23.38,2.56h7.47a1,1,0,0,1,1,.93h0a1,1,0,0,1-1,.93H23.38a1,1,0,0,1-1-.93h0a1,1,0,0,1,1-.93Z" transform="translate(0 -0.08)"/><path class="cls-1" d="M25,.08h7.47a1,1,0,0,1,1,.93h0a1,1,0,0,1-1,.93H25A1,1,0,0,1,24,1h0a1,1,0,0,1,1-.93Z" transform="translate(0 -0.08)"/><path class="cls-1" d="M101.92,28.1c0-3.05,1.26-4,2.77-4.14,3.9-.34,4.6,2.53,5,5.62l-.07,17.1h8.45V27.6c0-3.1,3.72-4.25,6-3.16,1.36.64,1.89,2.17,1.89,4.15V46.68h8.45V29.84c-.32-3.9-1-7.39-4-10.35-5.63-5.49-11.4-3.18-16.82.44-5.44-8.11-19.11-2.6-19.87,6.44l-.32,3.46.07,16.85h8.45V28.1Z" transform="translate(0 -0.08)"/><path class="cls-1" d="M51,46.92c5.82,0,5.26-.53,8.94-2.47v2.23H68.4V33.79l-.25-3.71a14.23,14.23,0,0,0-4.41-9c-6.07-6.05-14.19-5.6-20.52-.28-8.43,7.09-4.55,26.1,7.79,26.1Zm3-21.79c7.41,0,7.66,13.62-.24,13.62h-.5c-8.59,0-8.73-13.62.74-13.62Z" transform="translate(0 -0.08)"/><path class="cls-1" d="M83.79,17c-.25-3.18-.25-6.71-.25-9.9H75.35V17h-5v8.43h5v9.41c0,3.21,1.2,6.67,2.91,8.24,1.49,1.37,4.85,3.65,7.52,3.65H89.5V38.5H88.26c-3,0-4.19-1.23-4.47-4l-.32-2.72.07-6.44h6V17Z" transform="translate(0 -0.08)"/><path class="cls-1" d="M152,46.92c5.81,0,5.26-.53,8.94-2.47v2.23h8.44V33.79l-.24-3.71a14.24,14.24,0,0,0-4.42-9c-6.07-6.05-14.18-5.6-20.51-.28-8.74,7.34-4.2,26.1,7.79,26.1Zm3-21.79c7.41,0,7.66,13.62-.25,13.62h-.5c-8.59,0-8.73-13.62.75-13.62Z" transform="translate(0 -0.08)"/><path class="cls-1" d="M200,46.68V29.59l-.28-1.74c-.83-15.38-25.54-15.49-25.54.74V46.68h8.19V31.07c.24-3,1.27-6,3.56-6.23s5.63-.18,5.63,4.25V46.68Z" transform="translate(0 -0.08)"/><path class="cls-2" d="M112-26" transform="translate(0 -0.08)"/><path class="cls-2" d="M84-26" transform="translate(0 -0.08)"/></svg>